<svg width="177" height="26" viewBox="0 0 177 26" fill="none" xmlns="http://www.w3.org/2000/svg">
<g id="Logo" clip-path="url(#clip0_48_181)">
<g id="Group">
<g id="Group_2">
<g id="Group_3">
<path id="Vector" d="M28.8801 14.1156C28.706 6.29823 22.3128 0 14.448 0C6.47231 0 0 6.47231 0 14.448H5.77602C5.77602 20.8253 10.9507 26 17.3281 26C23.6105 26 28.706 20.9994 28.8801 14.7645C28.8801 14.6537 28.8801 14.5429 28.8801 14.448C28.8801 14.353 28.8801 14.2264 28.8801 14.1156ZM17.3281 20.224C14.1315 20.224 11.552 17.6446 11.552 14.448C11.552 11.2514 14.1315 8.67194 17.3281 8.67194C20.5246 8.67194 23.1041 11.2514 23.1041 14.448C23.1041 17.6446 20.5246 20.224 17.3281 20.224Z" fill="#FF005B"/>
</g>
<path id="Vector_2" d="M111.105 5.38037C106.073 5.38037 101.974 9.44732 101.974 14.4321C101.974 19.5118 105.978 23.4838 111.105 23.4838C116.217 23.4838 120.236 19.5118 120.236 14.4321C120.236 9.44732 116.137 5.38037 111.105 5.38037ZM111.105 19.7017C108.415 19.7017 106.453 17.2964 106.453 14.4479C106.453 11.5995 108.415 9.1783 111.105 9.1783C113.732 9.1783 115.71 11.6311 115.71 14.4321C115.71 17.2964 113.78 19.7017 111.105 19.7017Z" fill="#FF005B"/>
<g id="Group_4">
<path id="Vector_3" d="M70.9895 5.77603L70.9737 7.78577C70.9737 7.78577 70.768 7.53258 70.5939 7.34268C69.7394 6.31407 68.0778 5.39624 65.6566 5.39624C61.1782 5.39624 57.5227 9.46319 57.5227 14.448C57.5227 19.4486 61.1782 23.4997 65.6566 23.4997C68.0936 23.4997 69.7394 22.5819 70.5939 21.5533C70.768 21.3475 70.9737 21.1102 70.9737 21.1102L70.9895 23.1199H75.4205V14.448V5.77603H70.9895ZM71.2585 14.448C71.2585 17.4072 69.4387 19.7018 66.6852 19.7018C63.9317 19.7018 62.0011 17.4072 62.0011 14.448C62.0011 11.4888 63.9317 9.19417 66.6852 9.19417C69.4387 9.17835 71.2585 11.4729 71.2585 14.448Z" fill="#FF005B"/>
</g>
<g id="Group_5">
<path id="Vector_4" d="M153.848 5.77603L153.832 7.78577C153.832 7.78577 153.626 7.53258 153.452 7.34268C152.598 6.31407 150.936 5.39624 148.515 5.39624C144.036 5.39624 140.381 9.46319 140.381 14.448C140.381 19.4486 144.036 23.4997 148.515 23.4997C150.952 23.4997 152.598 22.5819 153.452 21.5533C153.626 21.3475 153.832 21.1102 153.832 21.1102L153.848 23.1199H158.279V14.448V5.77603H153.848ZM154.117 14.448C154.117 17.4072 152.297 19.7018 149.543 19.7018C146.79 19.7018 144.859 17.4072 144.859 14.448C144.859 11.4888 146.79 9.19417 149.543 9.19417C152.297 9.17835 154.117 11.4729 154.117 14.448Z" fill="#FF005B"/>
</g>
<path id="Vector_5" d="M50.8606 12.1375H55.3548C54.2471 7.91232 51.0347 5.38037 46.6829 5.38037C41.4765 5.38037 37.552 9.27325 37.552 14.4321C37.552 19.591 41.4765 23.4838 46.6829 23.4838C51.0347 23.4838 54.2629 20.9677 55.3548 16.7267H50.8606C50.0535 18.5465 48.6135 19.6859 46.6829 19.6859C43.9452 19.6859 42.0304 17.4072 42.0304 14.4321C42.0304 11.4571 43.9452 9.1783 46.6829 9.1783C48.6135 9.1783 50.0535 10.3335 50.8606 12.1375Z" fill="#FF005B"/>
<path id="Vector_6" d="M83.1905 5.77612H79.3767V23.1042H83.8235V12.4542L89.1406 19.2588L94.426 12.4542V23.1042H98.8727V5.77612H95.0748L89.1089 13.3878L83.1905 5.77612Z" fill="#FF005B"/>
<path id="Vector_7" d="M139.289 5.77612H134.051L127.753 13.3878V5.77612H123.306V23.1042H127.753V15.6191L134.795 23.1042H140.46L132.073 14.3056L139.289 5.77612Z" fill="#FF005B"/>
<path id="Vector_8" d="M166.539 23.1042H170.986V9.51075H176.208V5.77612H161.301V9.51075H166.539V23.1042Z" fill="#FF005B"/>
</g>
</g>
</g>
<defs>
<clipPath id="clip0_48_181">
<rect width="176.208" height="26" fill="white"/>
</clipPath>
</defs>
</svg>
