<svg width="217" height="32" viewBox="0 0 217 32" fill="none" xmlns="http://www.w3.org/2000/svg">
<g clip-path="url(#clip0_48_14)">
<path d="M35.5447 17.3731C35.3305 7.75167 27.462 0 17.7821 0C7.96591 0 0 7.96592 0 17.7821H7.10894C7.10894 25.6312 13.4778 32 21.3268 32C29.059 32 35.3305 25.8454 35.5447 18.1716C35.5447 18.0353 35.5447 17.899 35.5447 17.7821C35.5447 17.6652 35.5447 17.5094 35.5447 17.3731ZM21.3268 24.8911C17.3926 24.8911 14.2179 21.7164 14.2179 17.7821C14.2179 13.8478 17.3926 10.6732 21.3268 10.6732C25.2611 10.6732 28.4358 13.8478 28.4358 17.7821C28.4358 21.7164 25.2611 24.8911 21.3268 24.8911Z" fill="white"/>
<path d="M136.745 6.62207C130.551 6.62207 125.507 11.6275 125.507 17.7627C125.507 24.0146 130.434 28.9033 136.745 28.9033C143.036 28.9033 147.983 24.0146 147.983 17.7627C147.983 11.6275 142.938 6.62207 136.745 6.62207ZM136.745 24.2484C133.434 24.2484 131.019 21.2879 131.019 17.7821C131.019 14.2764 133.434 11.2964 136.745 11.2964C139.978 11.2964 142.412 14.3153 142.412 17.7627C142.412 21.2879 140.036 24.2484 136.745 24.2484Z" fill="white"/>
<path d="M87.3719 7.10904L87.3524 9.58256C87.3524 9.58256 87.0992 9.27094 86.885 9.03722C85.8333 7.77124 83.7882 6.6416 80.8083 6.6416C75.2964 6.6416 70.7974 11.6471 70.7974 17.7822C70.7974 23.9368 75.2964 28.9228 80.8083 28.9228C83.8077 28.9228 85.8333 27.7932 86.885 26.5272C87.0992 26.274 87.3524 25.9818 87.3524 25.9818L87.3719 28.4554H92.8254V17.7822V7.10904H87.3719ZM87.703 17.7822C87.703 21.4243 85.4632 24.2484 82.0743 24.2484C78.6854 24.2484 76.3092 21.4243 76.3092 17.7822C76.3092 14.1401 78.6854 11.316 82.0743 11.316C85.4632 11.2965 87.703 14.1206 87.703 17.7822Z" fill="white"/>
<path d="M189.351 7.10904L189.331 9.58256C189.331 9.58256 189.078 9.27094 188.864 9.03722C187.812 7.77124 185.767 6.6416 182.787 6.6416C177.275 6.6416 172.776 11.6471 172.776 17.7822C172.776 23.9368 177.275 28.9228 182.787 28.9228C185.787 28.9228 187.812 27.7932 188.864 26.5272C189.078 26.274 189.331 25.9818 189.331 25.9818L189.351 28.4554H194.804V17.7822V7.10904H189.351ZM189.682 17.7822C189.682 21.4243 187.442 24.2484 184.053 24.2484C180.664 24.2484 178.288 21.4243 178.288 17.7822C178.288 14.1401 180.664 11.316 184.053 11.316C187.442 11.2965 189.682 14.1206 189.682 17.7822Z" fill="white"/>
<path d="M62.5976 14.9386H68.1289C66.7655 9.73832 62.8118 6.62207 57.4557 6.62207C51.048 6.62207 46.2178 11.4133 46.2178 17.7627C46.2178 24.112 51.048 28.9033 57.4557 28.9033C62.8118 28.9033 66.785 25.8065 68.1289 20.5868H62.5976C61.6043 22.8266 59.8319 24.2289 57.4557 24.2289C54.0863 24.2289 51.7296 21.4243 51.7296 17.7627C51.7296 14.1011 54.0863 11.2964 57.4557 11.2964C59.8319 11.2964 61.6043 12.7182 62.5976 14.9386Z" fill="white"/>
<path d="M102.388 7.10889H97.6943V28.4357H103.167V15.328L109.711 23.7029L116.217 15.328V28.4357H121.689V7.10889H117.015L109.672 16.4771L102.388 7.10889Z" fill="white"/>
<path d="M171.433 7.10889H164.986L157.234 16.4771V7.10889H151.761V28.4357H157.234V19.2233L165.901 28.4357H172.874L162.551 17.6068L171.433 7.10889Z" fill="white"/>
<path d="M204.971 28.4357H210.444V11.7054H216.871V7.10889H198.524V11.7054H204.971V28.4357Z" fill="white"/>
</g>
<defs>
<clipPath id="clip0_48_14">
<rect width="216.872" height="32" fill="white"/>
</clipPath>
</defs>
</svg>
